# Blender 3.5.1
# www.blender.org
mtllib tile.mtl
o Cube
v 1.000000 0.200000 -1.000000
v 1.000000 -0.200000 -1.000000
v 1.000000 0.200000 1.000000
v 1.000000 -0.200000 1.000000
v -1.000000 0.200000 -1.000000
v -1.000000 -0.200000 -1.000000
v -1.000000 0.200000 1.000000
v -1.000000 -0.200000 1.000000
vn -0.0000 1.0000 -0.0000
vn -0.0000 -0.0000 1.0000
vn -1.0000 -0.0000 -0.0000
vn -0.0000 -1.0000 -0.0000
vn 1.0000 -0.0000 -0.0000
vn -0.0000 -0.0000 -1.0000
vt 0.497677 0.407402
vt 0.472874 0.518520
vt 0.363740 0.880976
vt 0.375000 0.500000
vt 0.297284 0.883622
vt 0.497677 0.657402
vt 0.625000 0.750000
vt 0.472874 0.768520
vt 0.375000 0.750000
vt 0.747677 0.407402
vt 0.625000 0.250000
vt 0.355473 0.202378
vt 0.375000 0.250000
vt 0.125000 0.500000
vt 0.289016 0.205024
vt 0.747677 0.657402
vt 0.625000 1.000000
vt 0.625000 0.000000
vt 0.375000 1.000000
vt 0.375000 0.000000
vt 0.125000 0.750000
s 0
usemtl Material
f 1/1/1 5/10/1 7/16/1 3/6/1
f 4/9/2 3/7/2 7/17/2 8/19/2
f 8/20/3 7/18/3 5/11/3 6/13/3
f 6/14/4 2/4/4 4/9/4 8/21/4
f 2/4/5 1/2/5 3/8/5 4/9/5
f 6/15/6 5/12/6 1/3/6 2/5/6
